{
	"asset":{
		"generator":"Khronos glTF Blender I/O v4.4.56",
		"version":"2.0"
	},
	"extensionsUsed":[
		"KHR_materials_specular"
	],
	"scene":0,
	"scenes":[
		{
			"name":"door_01",
			"nodes":[
				6
			]
		}
	],
	"nodes":[
		{
			"mesh":1,
			"name":"door_collider_R",
			"scale":[
				2,
				2,
				1
			],
			"translation":[
				-1.012575626373291,
				0,
				0
			]
		},
		{
			"children":[
				0
			],
			"name":"Door_R",
			"translation":[
				1,
				0,
				0
			]
		},
		{
			"mesh":2,
			"name":"door_collider_L",
			"scale":[
				2,
				2,
				1
			],
			"translation":[
				1,
				0,
				0
			]
		},
		{
			"children":[
				2
			],
			"name":"Door_L",
			"translation":[
				-1,
				0,
				0
			]
		},
		{
			"children":[
				1,
				3
			],
			"name":"Root"
		},
		{
			"mesh":0,
			"name":"door_01",
			"skin":0
		},
		{
			"children":[
				5,
				4
			],
			"name":"Door_Armature"
		}
	],
	"animations":[
		{
			"channels":[
				{
					"sampler":0,
					"target":{
						"node":4,
						"path":"translation"
					}
				},
				{
					"sampler":1,
					"target":{
						"node":4,
						"path":"rotation"
					}
				},
				{
					"sampler":2,
					"target":{
						"node":4,
						"path":"scale"
					}
				},
				{
					"sampler":3,
					"target":{
						"node":1,
						"path":"translation"
					}
				},
				{
					"sampler":4,
					"target":{
						"node":1,
						"path":"rotation"
					}
				},
				{
					"sampler":5,
					"target":{
						"node":1,
						"path":"scale"
					}
				},
				{
					"sampler":6,
					"target":{
						"node":3,
						"path":"translation"
					}
				},
				{
					"sampler":7,
					"target":{
						"node":3,
						"path":"rotation"
					}
				},
				{
					"sampler":8,
					"target":{
						"node":3,
						"path":"scale"
					}
				}
			],
			"name":"[Action Stash]",
			"samplers":[
				{
					"input":21,
					"interpolation":"STEP",
					"output":22
				},
				{
					"input":21,
					"interpolation":"STEP",
					"output":23
				},
				{
					"input":21,
					"interpolation":"STEP",
					"output":24
				},
				{
					"input":21,
					"interpolation":"STEP",
					"output":25
				},
				{
					"input":21,
					"interpolation":"STEP",
					"output":26
				},
				{
					"input":21,
					"interpolation":"STEP",
					"output":27
				},
				{
					"input":21,
					"interpolation":"STEP",
					"output":28
				},
				{
					"input":21,
					"interpolation":"STEP",
					"output":29
				},
				{
					"input":21,
					"interpolation":"STEP",
					"output":30
				}
			]
		},
		{
			"channels":[
				{
					"sampler":0,
					"target":{
						"node":4,
						"path":"translation"
					}
				},
				{
					"sampler":1,
					"target":{
						"node":4,
						"path":"rotation"
					}
				},
				{
					"sampler":2,
					"target":{
						"node":4,
						"path":"scale"
					}
				},
				{
					"sampler":3,
					"target":{
						"node":1,
						"path":"translation"
					}
				},
				{
					"sampler":4,
					"target":{
						"node":1,
						"path":"rotation"
					}
				},
				{
					"sampler":5,
					"target":{
						"node":1,
						"path":"scale"
					}
				},
				{
					"sampler":6,
					"target":{
						"node":3,
						"path":"translation"
					}
				},
				{
					"sampler":7,
					"target":{
						"node":3,
						"path":"rotation"
					}
				},
				{
					"sampler":8,
					"target":{
						"node":3,
						"path":"scale"
					}
				}
			],
			"name":"0. Door_Close",
			"samplers":[
				{
					"input":31,
					"interpolation":"STEP",
					"output":32
				},
				{
					"input":31,
					"interpolation":"STEP",
					"output":33
				},
				{
					"input":31,
					"interpolation":"STEP",
					"output":34
				},
				{
					"input":31,
					"interpolation":"STEP",
					"output":35
				},
				{
					"input":31,
					"interpolation":"STEP",
					"output":36
				},
				{
					"input":31,
					"interpolation":"STEP",
					"output":37
				},
				{
					"input":31,
					"interpolation":"STEP",
					"output":38
				},
				{
					"input":31,
					"interpolation":"STEP",
					"output":39
				},
				{
					"input":31,
					"interpolation":"STEP",
					"output":40
				}
			]
		},
		{
			"channels":[
				{
					"sampler":0,
					"target":{
						"node":4,
						"path":"translation"
					}
				},
				{
					"sampler":1,
					"target":{
						"node":4,
						"path":"rotation"
					}
				},
				{
					"sampler":2,
					"target":{
						"node":4,
						"path":"scale"
					}
				},
				{
					"sampler":3,
					"target":{
						"node":1,
						"path":"translation"
					}
				},
				{
					"sampler":4,
					"target":{
						"node":1,
						"path":"rotation"
					}
				},
				{
					"sampler":5,
					"target":{
						"node":1,
						"path":"scale"
					}
				},
				{
					"sampler":6,
					"target":{
						"node":3,
						"path":"translation"
					}
				},
				{
					"sampler":7,
					"target":{
						"node":3,
						"path":"rotation"
					}
				},
				{
					"sampler":8,
					"target":{
						"node":3,
						"path":"scale"
					}
				}
			],
			"name":"1. Door_Open",
			"samplers":[
				{
					"input":41,
					"interpolation":"STEP",
					"output":42
				},
				{
					"input":41,
					"interpolation":"STEP",
					"output":43
				},
				{
					"input":41,
					"interpolation":"STEP",
					"output":44
				},
				{
					"input":45,
					"interpolation":"LINEAR",
					"output":46
				},
				{
					"input":41,
					"interpolation":"STEP",
					"output":47
				},
				{
					"input":41,
					"interpolation":"STEP",
					"output":48
				},
				{
					"input":45,
					"interpolation":"LINEAR",
					"output":49
				},
				{
					"input":41,
					"interpolation":"STEP",
					"output":50
				},
				{
					"input":41,
					"interpolation":"STEP",
					"output":51
				}
			]
		}
	],
	"materials":[
		{
			"doubleSided":true,
			"name":"Template_Palette",
			"pbrMetallicRoughness":{
				"baseColorTexture":{
					"index":0
				},
				"metallicFactor":0.20000000298023224,
				"roughnessFactor":0.2631579041481018
			}
		},
		{
			"alphaMode":"BLEND",
			"doubleSided":true,
			"extensions":{
				"KHR_materials_specular":{
					"specularColorFactor":[
						2.0,
						2.0,
						2.0
					]
				}
			},
			"name":"Template_Palette_Glass",
			"pbrMetallicRoughness":{
				"baseColorFactor":[
					1,
					1,
					1,
					0.20000000298023224
				],
				"baseColorTexture":{
					"index":1
				},
				"metallicFactor":0.20000000298023224,
				"roughnessFactor":0
			}
		}
	],
	"meshes":[
		{
			"name":"Cube.004",
			"primitives":[
				{
					"attributes":{
						"POSITION":0,
						"NORMAL":1,
						"TEXCOORD_0":2,
						"JOINTS_0":3,
						"WEIGHTS_0":4
					},
					"indices":5,
					"material":0
				},
				{
					"attributes":{
						"POSITION":6,
						"NORMAL":7,
						"TEXCOORD_0":8,
						"JOINTS_0":9,
						"WEIGHTS_0":10
					},
					"indices":11,
					"material":1
				}
			]
		},
		{
			"name":"Cube.009",
			"primitives":[
				{
					"attributes":{
						"POSITION":13,
						"NORMAL":14,
						"TEXCOORD_0":15
					},
					"indices":16
				}
			]
		},
		{
			"name":"Cube.010",
			"primitives":[
				{
					"attributes":{
						"POSITION":17,
						"NORMAL":18,
						"TEXCOORD_0":19
					},
					"indices":20
				}
			]
		}
	],
	"textures":[
		{
			"sampler":0,
			"source":0
		},
		{
			"sampler":0,
			"source":0
		}
	],
	"images":[
		{
			"mimeType":"image/png",
			"name":"template_palette",
			"uri":"textures/template_palette.png"
		}
	],
	"skins":[
		{
			"inverseBindMatrices":12,
			"joints":[
				4,
				1,
				3
			],
			"name":"Door_Armature"
		}
	],
	"accessors":[
		{
			"bufferView":0,
			"componentType":5126,
			"count":96,
			"max":[
				2.0525918006896973,
				4.497112274169922,
				0.10000000149011612
			],
			"min":[
				-2.0525918006896973,
				0.053312499076128006,
				-0.10000000149011612
			],
			"type":"VEC3"
		},
		{
			"bufferView":1,
			"componentType":5126,
			"count":96,
			"type":"VEC3"
		},
		{
			"bufferView":2,
			"componentType":5126,
			"count":96,
			"type":"VEC2"
		},
		{
			"bufferView":3,
			"componentType":5121,
			"count":96,
			"type":"VEC4"
		},
		{
			"bufferView":4,
			"componentType":5126,
			"count":96,
			"type":"VEC4"
		},
		{
			"bufferView":5,
			"componentType":5123,
			"count":192,
			"type":"SCALAR"
		},
		{
			"bufferView":6,
			"componentType":5126,
			"count":18,
			"max":[
				1.9518239498138428,
				4.442948818206787,
				0.10000000149011612
			],
			"min":[
				-1.9518239498138428,
				0.10747573524713516,
				0.10000000149011612
			],
			"type":"VEC3"
		},
		{
			"bufferView":7,
			"componentType":5126,
			"count":18,
			"type":"VEC3"
		},
		{
			"bufferView":8,
			"componentType":5126,
			"count":18,
			"type":"VEC2"
		},
		{
			"bufferView":9,
			"componentType":5121,
			"count":18,
			"type":"VEC4"
		},
		{
			"bufferView":10,
			"componentType":5126,
			"count":18,
			"type":"VEC4"
		},
		{
			"bufferView":11,
			"componentType":5123,
			"count":48,
			"type":"SCALAR"
		},
		{
			"bufferView":12,
			"componentType":5126,
			"count":3,
			"type":"MAT4"
		},
		{
			"bufferView":13,
			"componentType":5126,
			"count":24,
			"max":[
				1.0261305570602417,
				2.248556137084961,
				0.10000000149011612
			],
			"min":[
				0,
				0,
				-0.10000000149011612
			],
			"type":"VEC3"
		},
		{
			"bufferView":14,
			"componentType":5126,
			"count":24,
			"type":"VEC3"
		},
		{
			"bufferView":15,
			"componentType":5126,
			"count":24,
			"type":"VEC2"
		},
		{
			"bufferView":16,
			"componentType":5123,
			"count":36,
			"type":"SCALAR"
		},
		{
			"bufferView":17,
			"componentType":5126,
			"count":24,
			"max":[
				0,
				2.248556137084961,
				0.10000000149011612
			],
			"min":[
				-1.0262959003448486,
				0,
				-0.10000000149011612
			],
			"type":"VEC3"
		},
		{
			"bufferView":18,
			"componentType":5126,
			"count":24,
			"type":"VEC3"
		},
		{
			"bufferView":19,
			"componentType":5126,
			"count":24,
			"type":"VEC2"
		},
		{
			"bufferView":20,
			"componentType":5123,
			"count":36,
			"type":"SCALAR"
		},
		{
			"bufferView":21,
			"componentType":5126,
			"count":2,
			"max":[
				0.03333333333333333
			],
			"min":[
				0
			],
			"type":"SCALAR"
		},
		{
			"bufferView":22,
			"componentType":5126,
			"count":2,
			"type":"VEC3"
		},
		{
			"bufferView":23,
			"componentType":5126,
			"count":2,
			"type":"VEC4"
		},
		{
			"bufferView":24,
			"componentType":5126,
			"count":2,
			"type":"VEC3"
		},
		{
			"bufferView":25,
			"componentType":5126,
			"count":2,
			"type":"VEC3"
		},
		{
			"bufferView":26,
			"componentType":5126,
			"count":2,
			"type":"VEC4"
		},
		{
			"bufferView":27,
			"componentType":5126,
			"count":2,
			"type":"VEC3"
		},
		{
			"bufferView":28,
			"componentType":5126,
			"count":2,
			"type":"VEC3"
		},
		{
			"bufferView":29,
			"componentType":5126,
			"count":2,
			"type":"VEC4"
		},
		{
			"bufferView":30,
			"componentType":5126,
			"count":2,
			"type":"VEC3"
		},
		{
			"bufferView":31,
			"componentType":5126,
			"count":2,
			"max":[
				0.06666666666666667
			],
			"min":[
				0.03333333333333333
			],
			"type":"SCALAR"
		},
		{
			"bufferView":32,
			"componentType":5126,
			"count":2,
			"type":"VEC3"
		},
		{
			"bufferView":33,
			"componentType":5126,
			"count":2,
			"type":"VEC4"
		},
		{
			"bufferView":34,
			"componentType":5126,
			"count":2,
			"type":"VEC3"
		},
		{
			"bufferView":35,
			"componentType":5126,
			"count":2,
			"type":"VEC3"
		},
		{
			"bufferView":36,
			"componentType":5126,
			"count":2,
			"type":"VEC4"
		},
		{
			"bufferView":37,
			"componentType":5126,
			"count":2,
			"type":"VEC3"
		},
		{
			"bufferView":38,
			"componentType":5126,
			"count":2,
			"type":"VEC3"
		},
		{
			"bufferView":39,
			"componentType":5126,
			"count":2,
			"type":"VEC4"
		},
		{
			"bufferView":40,
			"componentType":5126,
			"count":2,
			"type":"VEC3"
		},
		{
			"bufferView":41,
			"componentType":5126,
			"count":2,
			"max":[
				5.833333333333333
			],
			"min":[
				0.03333333333333333
			],
			"type":"SCALAR"
		},
		{
			"bufferView":42,
			"componentType":5126,
			"count":2,
			"type":"VEC3"
		},
		{
			"bufferView":43,
			"componentType":5126,
			"count":2,
			"type":"VEC4"
		},
		{
			"bufferView":44,
			"componentType":5126,
			"count":2,
			"type":"VEC3"
		},
		{
			"bufferView":45,
			"componentType":5126,
			"count":175,
			"max":[
				5.833333333333333
			],
			"min":[
				0.03333333333333333
			],
			"type":"SCALAR"
		},
		{
			"bufferView":46,
			"componentType":5126,
			"count":175,
			"type":"VEC3"
		},
		{
			"bufferView":47,
			"componentType":5126,
			"count":2,
			"type":"VEC4"
		},
		{
			"bufferView":48,
			"componentType":5126,
			"count":2,
			"type":"VEC3"
		},
		{
			"bufferView":49,
			"componentType":5126,
			"count":175,
			"type":"VEC3"
		},
		{
			"bufferView":50,
			"componentType":5126,
			"count":2,
			"type":"VEC4"
		},
		{
			"bufferView":51,
			"componentType":5126,
			"count":2,
			"type":"VEC3"
		}
	],
	"bufferViews":[
		{
			"buffer":0,
			"byteLength":1152,
			"byteOffset":0,
			"target":34962
		},
		{
			"buffer":0,
			"byteLength":1152,
			"byteOffset":1152,
			"target":34962
		},
		{
			"buffer":0,
			"byteLength":768,
			"byteOffset":2304,
			"target":34962
		},
		{
			"buffer":0,
			"byteLength":384,
			"byteOffset":3072,
			"target":34962
		},
		{
			"buffer":0,
			"byteLength":1536,
			"byteOffset":3456,
			"target":34962
		},
		{
			"buffer":0,
			"byteLength":384,
			"byteOffset":4992,
			"target":34963
		},
		{
			"buffer":0,
			"byteLength":216,
			"byteOffset":5376,
			"target":34962
		},
		{
			"buffer":0,
			"byteLength":216,
			"byteOffset":5592,
			"target":34962
		},
		{
			"buffer":0,
			"byteLength":144,
			"byteOffset":5808,
			"target":34962
		},
		{
			"buffer":0,
			"byteLength":72,
			"byteOffset":5952,
			"target":34962
		},
		{
			"buffer":0,
			"byteLength":288,
			"byteOffset":6024,
			"target":34962
		},
		{
			"buffer":0,
			"byteLength":96,
			"byteOffset":6312,
			"target":34963
		},
		{
			"buffer":0,
			"byteLength":192,
			"byteOffset":6408
		},
		{
			"buffer":0,
			"byteLength":288,
			"byteOffset":6600,
			"target":34962
		},
		{
			"buffer":0,
			"byteLength":288,
			"byteOffset":6888,
			"target":34962
		},
		{
			"buffer":0,
			"byteLength":192,
			"byteOffset":7176,
			"target":34962
		},
		{
			"buffer":0,
			"byteLength":72,
			"byteOffset":7368,
			"target":34963
		},
		{
			"buffer":0,
			"byteLength":288,
			"byteOffset":7440,
			"target":34962
		},
		{
			"buffer":0,
			"byteLength":288,
			"byteOffset":7728,
			"target":34962
		},
		{
			"buffer":0,
			"byteLength":192,
			"byteOffset":8016,
			"target":34962
		},
		{
			"buffer":0,
			"byteLength":72,
			"byteOffset":8208,
			"target":34963
		},
		{
			"buffer":0,
			"byteLength":8,
			"byteOffset":8280
		},
		{
			"buffer":0,
			"byteLength":24,
			"byteOffset":8288
		},
		{
			"buffer":0,
			"byteLength":32,
			"byteOffset":8312
		},
		{
			"buffer":0,
			"byteLength":24,
			"byteOffset":8344
		},
		{
			"buffer":0,
			"byteLength":24,
			"byteOffset":8368
		},
		{
			"buffer":0,
			"byteLength":32,
			"byteOffset":8392
		},
		{
			"buffer":0,
			"byteLength":24,
			"byteOffset":8424
		},
		{
			"buffer":0,
			"byteLength":24,
			"byteOffset":8448
		},
		{
			"buffer":0,
			"byteLength":32,
			"byteOffset":8472
		},
		{
			"buffer":0,
			"byteLength":24,
			"byteOffset":8504
		},
		{
			"buffer":0,
			"byteLength":8,
			"byteOffset":8528
		},
		{
			"buffer":0,
			"byteLength":24,
			"byteOffset":8536
		},
		{
			"buffer":0,
			"byteLength":32,
			"byteOffset":8560
		},
		{
			"buffer":0,
			"byteLength":24,
			"byteOffset":8592
		},
		{
			"buffer":0,
			"byteLength":24,
			"byteOffset":8616
		},
		{
			"buffer":0,
			"byteLength":32,
			"byteOffset":8640
		},
		{
			"buffer":0,
			"byteLength":24,
			"byteOffset":8672
		},
		{
			"buffer":0,
			"byteLength":24,
			"byteOffset":8696
		},
		{
			"buffer":0,
			"byteLength":32,
			"byteOffset":8720
		},
		{
			"buffer":0,
			"byteLength":24,
			"byteOffset":8752
		},
		{
			"buffer":0,
			"byteLength":8,
			"byteOffset":8776
		},
		{
			"buffer":0,
			"byteLength":24,
			"byteOffset":8784
		},
		{
			"buffer":0,
			"byteLength":32,
			"byteOffset":8808
		},
		{
			"buffer":0,
			"byteLength":24,
			"byteOffset":8840
		},
		{
			"buffer":0,
			"byteLength":700,
			"byteOffset":8864
		},
		{
			"buffer":0,
			"byteLength":2100,
			"byteOffset":9564
		},
		{
			"buffer":0,
			"byteLength":32,
			"byteOffset":11664
		},
		{
			"buffer":0,
			"byteLength":24,
			"byteOffset":11696
		},
		{
			"buffer":0,
			"byteLength":2100,
			"byteOffset":11720
		},
		{
			"buffer":0,
			"byteLength":32,
			"byteOffset":13820
		},
		{
			"buffer":0,
			"byteLength":24,
			"byteOffset":13852
		}
	],
	"samplers":[
		{
			"magFilter":9729,
			"minFilter":9987
		}
	],
	"buffers":[
		{
			"byteLength":13876,
			"uri":"door_01.bin"
		}
	]
}
