{
	"asset":{
		"generator":"Khronos glTF Blender I/O v4.4.56",
		"version":"2.0"
	},
	"scene":0,
	"scenes":[
		{
			"name":"floor_lamp",
			"nodes":[
				0
			]
		}
	],
	"nodes":[
		{
			"mesh":0,
			"name":"floor_lamp",
			"scale":[
				1.2133162021636963,
				1.2133162021636963,
				1.2133162021636963
			]
		}
	],
	"materials":[
		{
			"doubleSided":true,
			"name":"Template_Palette_rough",
			"pbrMetallicRoughness":{
				"baseColorTexture":{
					"index":0
				},
				"metallicFactor":0
			}
		},
		{
			"doubleSided":true,
			"emissiveFactor":[
				1,
				1,
				1
			],
			"emissiveTexture":{
				"index":1
			},
			"name":"Template_Palette_Emission",
			"pbrMetallicRoughness":{
				"baseColorTexture":{
					"index":2
				},
				"metallicFactor":0.20000000298023224,
				"roughnessFactor":0.2631579041481018
			}
		},
		{
			"doubleSided":true,
			"name":"Template_Palette_metal",
			"pbrMetallicRoughness":{
				"baseColorTexture":{
					"index":3
				},
				"roughnessFactor":0.20000000298023224
			}
		}
	],
	"meshes":[
		{
			"name":"Circle",
			"primitives":[
				{
					"attributes":{
						"POSITION":0,
						"NORMAL":1,
						"TEXCOORD_0":2
					},
					"indices":3,
					"material":0
				},
				{
					"attributes":{
						"POSITION":4,
						"NORMAL":5,
						"TEXCOORD_0":6
					},
					"indices":7,
					"material":1
				},
				{
					"attributes":{
						"POSITION":8,
						"NORMAL":9,
						"TEXCOORD_0":10
					},
					"indices":11,
					"material":2
				}
			]
		}
	],
	"textures":[
		{
			"sampler":0,
			"source":0
		},
		{
			"sampler":0,
			"source":0
		},
		{
			"sampler":0,
			"source":0
		},
		{
			"sampler":0,
			"source":0
		}
	],
	"images":[
		{
			"mimeType":"image/png",
			"name":"template_palette",
			"uri":"textures/template_palette.png"
		}
	],
	"accessors":[
		{
			"bufferView":0,
			"componentType":5126,
			"count":213,
			"max":[
				0.23576049506664276,
				2.1613831520080566,
				0.7238988280296326
			],
			"min":[
				-0.23576049506664276,
				0,
				-0.22830967605113983
			],
			"type":"VEC3"
		},
		{
			"bufferView":1,
			"componentType":5126,
			"count":213,
			"type":"VEC3"
		},
		{
			"bufferView":2,
			"componentType":5126,
			"count":213,
			"type":"VEC2"
		},
		{
			"bufferView":3,
			"componentType":5123,
			"count":960,
			"type":"SCALAR"
		},
		{
			"bufferView":4,
			"componentType":5126,
			"count":59,
			"max":[
				0.23576049506664276,
				1.8123975992202759,
				0.7238988280296326
			],
			"min":[
				-0.23576049506664276,
				1.740575909614563,
				0.2523775100708008
			],
			"type":"VEC3"
		},
		{
			"bufferView":5,
			"componentType":5126,
			"count":59,
			"type":"VEC3"
		},
		{
			"bufferView":6,
			"componentType":5126,
			"count":59,
			"type":"VEC2"
		},
		{
			"bufferView":7,
			"componentType":5123,
			"count":210,
			"type":"SCALAR"
		},
		{
			"bufferView":8,
			"componentType":5126,
			"count":48,
			"max":[
				0.018342381343245506,
				2.13720440864563,
				0.4846591055393219
			],
			"min":[
				-0.018342381343245506,
				0.030153019353747368,
				-0.018342381343245506
			],
			"type":"VEC3"
		},
		{
			"bufferView":9,
			"componentType":5126,
			"count":48,
			"type":"VEC3"
		},
		{
			"bufferView":10,
			"componentType":5126,
			"count":48,
			"type":"VEC2"
		},
		{
			"bufferView":11,
			"componentType":5123,
			"count":192,
			"type":"SCALAR"
		}
	],
	"bufferViews":[
		{
			"buffer":0,
			"byteLength":2556,
			"byteOffset":0,
			"target":34962
		},
		{
			"buffer":0,
			"byteLength":2556,
			"byteOffset":2556,
			"target":34962
		},
		{
			"buffer":0,
			"byteLength":1704,
			"byteOffset":5112,
			"target":34962
		},
		{
			"buffer":0,
			"byteLength":1920,
			"byteOffset":6816,
			"target":34963
		},
		{
			"buffer":0,
			"byteLength":708,
			"byteOffset":8736,
			"target":34962
		},
		{
			"buffer":0,
			"byteLength":708,
			"byteOffset":9444,
			"target":34962
		},
		{
			"buffer":0,
			"byteLength":472,
			"byteOffset":10152,
			"target":34962
		},
		{
			"buffer":0,
			"byteLength":420,
			"byteOffset":10624,
			"target":34963
		},
		{
			"buffer":0,
			"byteLength":576,
			"byteOffset":11044,
			"target":34962
		},
		{
			"buffer":0,
			"byteLength":576,
			"byteOffset":11620,
			"target":34962
		},
		{
			"buffer":0,
			"byteLength":384,
			"byteOffset":12196,
			"target":34962
		},
		{
			"buffer":0,
			"byteLength":384,
			"byteOffset":12580,
			"target":34963
		}
	],
	"samplers":[
		{
			"magFilter":9729,
			"minFilter":9987
		}
	],
	"buffers":[
		{
			"byteLength":12964,
			"uri":"floor_lamp.bin"
		}
	]
}
