{
	"asset":{
		"generator":"Khronos glTF Blender I/O v4.4.56",
		"version":"2.0"
	},
	"scene":0,
	"scenes":[
		{
			"name":"gamer_chair_blue",
			"nodes":[
				0,
				1
			]
		}
	],
	"nodes":[
		{
			"mesh":0,
			"name":"gamer_chair_blue_collider"
		},
		{
			"mesh":1,
			"name":"gamer_chair_blue"
		}
	],
	"materials":[
		{
			"doubleSided":true,
			"name":"Template_Palette_semirough",
			"pbrMetallicRoughness":{
				"baseColorTexture":{
					"index":0
				},
				"metallicFactor":0,
				"roughnessFactor":0.6000000238418579
			}
		},
		{
			"doubleSided":true,
			"emissiveFactor":[
				1,
				1,
				1
			],
			"emissiveTexture":{
				"index":1
			},
			"name":"Template_Palette_Emission",
			"pbrMetallicRoughness":{
				"baseColorTexture":{
					"index":2
				},
				"metallicFactor":0.20000000298023224,
				"roughnessFactor":0.2631579041481018
			}
		},
		{
			"doubleSided":true,
			"name":"Template_Palette",
			"pbrMetallicRoughness":{
				"baseColorTexture":{
					"index":3
				},
				"metallicFactor":0.20000000298023224,
				"roughnessFactor":0.2631579041481018
			}
		}
	],
	"meshes":[
		{
			"name":"Cube.028",
			"primitives":[
				{
					"attributes":{
						"POSITION":0,
						"NORMAL":1,
						"TEXCOORD_0":2,
						"TANGENT":3
					},
					"indices":4
				}
			]
		},
		{
			"name":"Plane.059",
			"primitives":[
				{
					"attributes":{
						"POSITION":5,
						"NORMAL":6,
						"TEXCOORD_0":7
					},
					"indices":8,
					"material":0
				},
				{
					"attributes":{
						"POSITION":9,
						"NORMAL":10,
						"TEXCOORD_0":11
					},
					"indices":12,
					"material":1
				},
				{
					"attributes":{
						"POSITION":13,
						"NORMAL":14,
						"TEXCOORD_0":15
					},
					"indices":16,
					"material":2
				}
			]
		}
	],
	"textures":[
		{
			"sampler":0,
			"source":0
		},
		{
			"sampler":0,
			"source":0
		},
		{
			"sampler":0,
			"source":0
		},
		{
			"sampler":0,
			"source":0
		}
	],
	"images":[
		{
			"mimeType":"image/png",
			"name":"template_palette",
			"uri":"textures/template_palette.png"
		}
	],
	"accessors":[
		{
			"bufferView":0,
			"componentType":5126,
			"count":56,
			"max":[
				0.5034814476966858,
				1.5237629413604736,
				-0.046373382210731506
			],
			"min":[
				-0.5034814476966858,
				0.0006543846102431417,
				-0.9454535245895386
			],
			"type":"VEC3"
		},
		{
			"bufferView":1,
			"componentType":5126,
			"count":56,
			"type":"VEC3"
		},
		{
			"bufferView":2,
			"componentType":5126,
			"count":56,
			"type":"VEC2"
		},
		{
			"bufferView":3,
			"componentType":5126,
			"count":56,
			"type":"VEC4"
		},
		{
			"bufferView":4,
			"componentType":5123,
			"count":96,
			"type":"SCALAR"
		},
		{
			"bufferView":5,
			"componentType":5126,
			"count":524,
			"max":[
				0.4789108633995056,
				1.5793569087982178,
				-0.06395454704761505
			],
			"min":[
				-0.4789108633995056,
				0.29747065901756287,
				-0.9313071370124817
			],
			"type":"VEC3"
		},
		{
			"bufferView":6,
			"componentType":5126,
			"count":524,
			"type":"VEC3"
		},
		{
			"bufferView":7,
			"componentType":5126,
			"count":524,
			"type":"VEC2"
		},
		{
			"bufferView":8,
			"componentType":5123,
			"count":1749,
			"type":"SCALAR"
		},
		{
			"bufferView":9,
			"componentType":5126,
			"count":170,
			"max":[
				0.4789108633995056,
				1.5643844604492188,
				-0.15854515135288239
			],
			"min":[
				-0.4789108633995056,
				0.29747065901756287,
				-0.8008903861045837
			],
			"type":"VEC3"
		},
		{
			"bufferView":10,
			"componentType":5126,
			"count":170,
			"type":"VEC3"
		},
		{
			"bufferView":11,
			"componentType":5126,
			"count":170,
			"type":"VEC2"
		},
		{
			"bufferView":12,
			"componentType":5123,
			"count":492,
			"type":"SCALAR"
		},
		{
			"bufferView":13,
			"componentType":5126,
			"count":108,
			"max":[
				0.2936572730541229,
				0.3353923559188843,
				-0.17782537639141083
			],
			"min":[
				-0.2936572730541229,
				0,
				-0.7651399374008179
			],
			"type":"VEC3"
		},
		{
			"bufferView":14,
			"componentType":5126,
			"count":108,
			"type":"VEC3"
		},
		{
			"bufferView":15,
			"componentType":5126,
			"count":108,
			"type":"VEC2"
		},
		{
			"bufferView":16,
			"componentType":5123,
			"count":210,
			"type":"SCALAR"
		}
	],
	"bufferViews":[
		{
			"buffer":0,
			"byteLength":672,
			"byteOffset":0,
			"target":34962
		},
		{
			"buffer":0,
			"byteLength":672,
			"byteOffset":672,
			"target":34962
		},
		{
			"buffer":0,
			"byteLength":448,
			"byteOffset":1344,
			"target":34962
		},
		{
			"buffer":0,
			"byteLength":896,
			"byteOffset":1792,
			"target":34962
		},
		{
			"buffer":0,
			"byteLength":192,
			"byteOffset":2688,
			"target":34963
		},
		{
			"buffer":0,
			"byteLength":6288,
			"byteOffset":2880,
			"target":34962
		},
		{
			"buffer":0,
			"byteLength":6288,
			"byteOffset":9168,
			"target":34962
		},
		{
			"buffer":0,
			"byteLength":4192,
			"byteOffset":15456,
			"target":34962
		},
		{
			"buffer":0,
			"byteLength":3498,
			"byteOffset":19648,
			"target":34963
		},
		{
			"buffer":0,
			"byteLength":2040,
			"byteOffset":23148,
			"target":34962
		},
		{
			"buffer":0,
			"byteLength":2040,
			"byteOffset":25188,
			"target":34962
		},
		{
			"buffer":0,
			"byteLength":1360,
			"byteOffset":27228,
			"target":34962
		},
		{
			"buffer":0,
			"byteLength":984,
			"byteOffset":28588,
			"target":34963
		},
		{
			"buffer":0,
			"byteLength":1296,
			"byteOffset":29572,
			"target":34962
		},
		{
			"buffer":0,
			"byteLength":1296,
			"byteOffset":30868,
			"target":34962
		},
		{
			"buffer":0,
			"byteLength":864,
			"byteOffset":32164,
			"target":34962
		},
		{
			"buffer":0,
			"byteLength":420,
			"byteOffset":33028,
			"target":34963
		}
	],
	"samplers":[
		{
			"magFilter":9729,
			"minFilter":9987
		}
	],
	"buffers":[
		{
			"byteLength":33448,
			"uri":"gamer_chair_blue.bin"
		}
	]
}
