{
	"asset":{
		"generator":"Khronos glTF Blender I/O v4.4.56",
		"version":"2.0"
	},
	"extensionsUsed":[
		"KHR_materials_emissive_strength"
	],
	"scene":0,
	"scenes":[
		{
			"name":"Panel_01",
			"nodes":[
				0,
				1,
				2,
				3,
				4
			]
		}
	],
	"nodes":[
		{
			"mesh":0,
			"name":"Plane.001"
		},
		{
			"mesh":1,
			"name":"Neones",
			"rotation":[
				0,
				0,
				-0.7071068286895752,
				0.7071068286895752
			],
			"translation":[
				-2,
				2,
				0
			]
		},
		{
			"mesh":2,
			"name":"Details.001",
			"rotation":[
				-0.7071068286895752,
				0,
				0,
				0.7071068286895752
			],
			"translation":[
				0,
				2,
				0
			]
		},
		{
			"mesh":3,
			"name":"Plane.002"
		},
		{
			"mesh":4,
			"name":"Panel_01_collider",
			"translation":[
				0,
				1,
				0
			]
		}
	],
	"materials":[
		{
			"doubleSided":true,
			"name":"Template_Palette",
			"pbrMetallicRoughness":{
				"baseColorTexture":{
					"index":0
				},
				"metallicFactor":0.20000000298023224,
				"roughnessFactor":0.2631579041481018
			}
		},
		{
			"doubleSided":true,
			"emissiveFactor":[
				1,
				1,
				1
			],
			"emissiveTexture":{
				"index":1
			},
			"extensions":{
				"KHR_materials_emissive_strength":{
					"emissiveStrength":3
				}
			},
			"name":"Template_Palette_Emission",
			"pbrMetallicRoughness":{
				"baseColorTexture":{
					"index":2
				},
				"metallicFactor":0.20000000298023224,
				"roughnessFactor":0.2631579041481018
			}
		}
	],
	"meshes":[
		{
			"name":"Plane.001",
			"primitives":[
				{
					"attributes":{
						"POSITION":0,
						"NORMAL":1,
						"TEXCOORD_0":2
					},
					"indices":3,
					"material":0
				}
			]
		},
		{
			"name":"Plane.002",
			"primitives":[
				{
					"attributes":{
						"POSITION":4,
						"NORMAL":5,
						"TEXCOORD_0":6
					},
					"indices":7,
					"material":1
				}
			]
		},
		{
			"name":"Plane.004",
			"primitives":[
				{
					"attributes":{
						"POSITION":8,
						"NORMAL":9,
						"TEXCOORD_0":10
					},
					"indices":11,
					"material":0
				}
			]
		},
		{
			"name":"Plane.003",
			"primitives":[
				{
					"attributes":{
						"POSITION":12,
						"NORMAL":13,
						"TEXCOORD_0":14
					},
					"indices":15,
					"material":0
				}
			]
		},
		{
			"name":"Cube",
			"primitives":[
				{
					"attributes":{
						"POSITION":16,
						"NORMAL":17,
						"TEXCOORD_0":18
					},
					"indices":19
				}
			]
		}
	],
	"textures":[
		{
			"sampler":0,
			"source":0
		},
		{
			"sampler":0,
			"source":0
		},
		{
			"sampler":0,
			"source":0
		}
	],
	"images":[
		{
			"mimeType":"image/png",
			"name":"template_palette",
			"uri":"textures/template_palette.png"
		}
	],
	"accessors":[
		{
			"bufferView":0,
			"componentType":5126,
			"count":76,
			"max":[
				2.000000238418579,
				4,
				0.15065225958824158
			],
			"min":[
				-2.000000238418579,
				0,
				-0.10000000149011612
			],
			"type":"VEC3"
		},
		{
			"bufferView":1,
			"componentType":5126,
			"count":76,
			"type":"VEC3"
		},
		{
			"bufferView":2,
			"componentType":5126,
			"count":76,
			"type":"VEC2"
		},
		{
			"bufferView":3,
			"componentType":5123,
			"count":156,
			"type":"SCALAR"
		},
		{
			"bufferView":4,
			"componentType":5126,
			"count":48,
			"max":[
				1.807998538017273,
				3.901660919189453,
				0.05292774736881256
			],
			"min":[
				-1.9305766820907593,
				0.09833884239196777,
				-0.01249554380774498
			],
			"type":"VEC3"
		},
		{
			"bufferView":5,
			"componentType":5126,
			"count":48,
			"type":"VEC3"
		},
		{
			"bufferView":6,
			"componentType":5126,
			"count":48,
			"type":"VEC2"
		},
		{
			"bufferView":7,
			"componentType":5123,
			"count":72,
			"type":"SCALAR"
		},
		{
			"bufferView":8,
			"componentType":5126,
			"count":160,
			"max":[
				2,
				0.07979685813188553,
				1.901585340499878
			],
			"min":[
				-2,
				0,
				-1.8199299573898315
			],
			"type":"VEC3"
		},
		{
			"bufferView":9,
			"componentType":5126,
			"count":160,
			"type":"VEC3"
		},
		{
			"bufferView":10,
			"componentType":5126,
			"count":160,
			"type":"VEC2"
		},
		{
			"bufferView":11,
			"componentType":5123,
			"count":240,
			"type":"SCALAR"
		},
		{
			"bufferView":12,
			"componentType":5126,
			"count":6,
			"max":[
				1.9000002145767212,
				3.901585102081299,
				-0.10000000149011612
			],
			"min":[
				-1.9000002145767212,
				0.18007004261016846,
				-0.10000000149011612
			],
			"type":"VEC3"
		},
		{
			"bufferView":13,
			"componentType":5126,
			"count":6,
			"type":"VEC3"
		},
		{
			"bufferView":14,
			"componentType":5126,
			"count":6,
			"type":"VEC2"
		},
		{
			"bufferView":15,
			"componentType":5123,
			"count":12,
			"type":"SCALAR"
		},
		{
			"bufferView":16,
			"componentType":5126,
			"count":24,
			"max":[
				2.0080251693725586,
				3,
				0.09979248046875
			],
			"min":[
				-2.0080251693725586,
				-1,
				-0.09979248046875
			],
			"type":"VEC3"
		},
		{
			"bufferView":17,
			"componentType":5126,
			"count":24,
			"type":"VEC3"
		},
		{
			"bufferView":18,
			"componentType":5126,
			"count":24,
			"type":"VEC2"
		},
		{
			"bufferView":19,
			"componentType":5123,
			"count":36,
			"type":"SCALAR"
		}
	],
	"bufferViews":[
		{
			"buffer":0,
			"byteLength":912,
			"byteOffset":0,
			"target":34962
		},
		{
			"buffer":0,
			"byteLength":912,
			"byteOffset":912,
			"target":34962
		},
		{
			"buffer":0,
			"byteLength":608,
			"byteOffset":1824,
			"target":34962
		},
		{
			"buffer":0,
			"byteLength":312,
			"byteOffset":2432,
			"target":34963
		},
		{
			"buffer":0,
			"byteLength":576,
			"byteOffset":2744,
			"target":34962
		},
		{
			"buffer":0,
			"byteLength":576,
			"byteOffset":3320,
			"target":34962
		},
		{
			"buffer":0,
			"byteLength":384,
			"byteOffset":3896,
			"target":34962
		},
		{
			"buffer":0,
			"byteLength":144,
			"byteOffset":4280,
			"target":34963
		},
		{
			"buffer":0,
			"byteLength":1920,
			"byteOffset":4424,
			"target":34962
		},
		{
			"buffer":0,
			"byteLength":1920,
			"byteOffset":6344,
			"target":34962
		},
		{
			"buffer":0,
			"byteLength":1280,
			"byteOffset":8264,
			"target":34962
		},
		{
			"buffer":0,
			"byteLength":480,
			"byteOffset":9544,
			"target":34963
		},
		{
			"buffer":0,
			"byteLength":72,
			"byteOffset":10024,
			"target":34962
		},
		{
			"buffer":0,
			"byteLength":72,
			"byteOffset":10096,
			"target":34962
		},
		{
			"buffer":0,
			"byteLength":48,
			"byteOffset":10168,
			"target":34962
		},
		{
			"buffer":0,
			"byteLength":24,
			"byteOffset":10216,
			"target":34963
		},
		{
			"buffer":0,
			"byteLength":288,
			"byteOffset":10240,
			"target":34962
		},
		{
			"buffer":0,
			"byteLength":288,
			"byteOffset":10528,
			"target":34962
		},
		{
			"buffer":0,
			"byteLength":192,
			"byteOffset":10816,
			"target":34962
		},
		{
			"buffer":0,
			"byteLength":72,
			"byteOffset":11008,
			"target":34963
		}
	],
	"samplers":[
		{
			"magFilter":9729,
			"minFilter":9987
		}
	],
	"buffers":[
		{
			"byteLength":11080,
			"uri":"panel_01.bin"
		}
	]
}
